<?xml version="1.0" standalone="no"?>
<!DOCTYPE svg PUBLIC "-//W3C//DTD SVG 20010904//EN"
 "http://www.w3.org/TR/2001/REC-SVG-20010904/DTD/svg10.dtd">
<svg version="1.0" xmlns="http://www.w3.org/2000/svg"
 width="1380.000000pt" height="752.000000pt" viewBox="0 0 1380.000000 752.000000"
 preserveAspectRatio="xMidYMid meet">

<g transform="translate(0.000000,752.000000) scale(0.100000,-0.100000)"
fill="#000000" stroke="none">
<path d="M7652 5669 c-60 -30 -85 -70 -90 -145 -5 -73 11 -110 64 -150 47 -36
134 -45 185 -19 72 37 101 82 103 161 1 131 -140 213 -262 153z"/>
<path d="M3384 5641 c-115 -52 -170 -138 -427 -661 -109 -223 -342 -695 -518
-1050 -186 -377 -325 -670 -334 -705 -20 -76 -13 -109 26 -125 88 -37 295 46
709 285 369 213 549 298 797 379 127 41 343 99 349 93 1 -1 34 -74 73 -162 84
-187 164 -334 232 -426 53 -72 141 -159 161 -160 7 0 95 -2 194 -4 174 -4 182
-4 200 16 28 31 24 133 -10 234 -38 115 -147 329 -208 410 -29 38 -79 90 -110
115 -31 25 -54 48 -50 52 13 12 471 29 623 22 l149 -7 0 -764 0 -763 115 0
115 0 0 508 1 507 22 -30 c12 -16 44 -54 71 -83 214 -229 589 -316 931 -217
387 112 645 465 646 881 l0 92 57 38 c160 106 298 286 382 499 18 44 35 83 39
87 3 4 6 -358 6 -805 l0 -812 113 -3 112 -3 0 941 0 941 -111 -3 -111 -3 -34
-105 c-93 -284 -283 -465 -626 -596 -175 -66 -423 -106 -790 -125 -210 -11
-648 -6 -683 8 -20 7 -13 48 25 161 39 115 82 184 175 278 64 64 98 89 165
122 126 62 193 77 340 76 114 0 134 -3 220 -33 198 -67 328 -186 420 -384 31
-65 31 -65 62 -56 69 19 170 64 175 76 3 8 -4 37 -16 66 -87 209 -286 399
-498 477 -138 50 -227 63 -392 57 -173 -5 -270 -30 -415 -105 -74 -37 -109
-64 -188 -143 l-98 -97 0 164 0 164 -115 0 -115 0 0 -399 c0 -220 -3 -402 -7
-404 -5 -2 -132 11 -283 30 -403 51 -647 50 -785 -3 -15 -6 -11 3 16 34 111
129 76 260 -224 852 -94 184 -188 362 -210 394 -112 166 -245 231 -363 177z
m126 -2 c63 -14 143 -71 195 -141 25 -33 87 -144 139 -246 52 -103 111 -216
131 -252 61 -107 175 -358 211 -466 71 -211 32 -319 -140 -383 -84 -31 -165
-42 -319 -42 -163 0 -248 20 -321 76 -121 92 -112 275 18 342 28 14 28 14 -6
-20 -110 -110 -44 -292 131 -358 144 -55 390 -26 514 60 112 77 129 202 55
416 -45 133 -213 503 -223 493 -3 -3 28 -76 69 -164 196 -425 227 -574 138
-691 -28 -38 -120 -86 -207 -108 -111 -28 -329 -13 -369 26 -14 13 -5 11 45
-7 65 -24 216 -21 299 5 126 39 196 105 221 205 22 88 -15 255 -103 464 -78
188 -108 265 -103 270 6 7 -71 157 -122 235 -86 134 -196 217 -289 217 -58 0
-136 -43 -192 -106 -77 -87 -149 -219 -497 -912 -180 -359 -329 -651 -331
-649 -4 3 336 704 601 1242 183 371 249 460 366 494 44 12 37 12 89 0z m45
-103 c53 -22 102 -64 149 -125 66 -85 144 -228 166 -303 11 -36 43 -120 71
-185 85 -197 130 -342 136 -443 5 -83 4 -93 -21 -144 -46 -94 -158 -153 -311
-163 -104 -7 -182 9 -237 50 -24 17 -46 32 -50 32 -3 0 -9 3 -13 7 -9 9 16 5
33 -5 6 -5 12 -4 12 2 0 6 17 0 38 -12 53 -31 205 -31 274 0 200 92 226 288
86 663 -77 207 -123 294 -193 366 -79 80 -132 108 -210 109 -103 0 -176 -57
-292 -231 -100 -149 -231 -380 -333 -584 -45 -90 -291 -550 -294 -550 -1 0 -1
15 0 33 1 36 521 1082 622 1252 105 176 185 245 285 245 26 0 63 -7 82 -14z
m59 -209 c105 -70 163 -164 256 -411 69 -184 93 -297 88 -406 -7 -131 -47
-193 -163 -247 -49 -22 -73 -27 -135 -27 -41 1 -86 5 -100 11 -18 7 -3 9 58 5
77 -4 86 -3 147 27 73 36 117 84 140 150 42 122 26 256 -60 493 -75 209 -147
305 -271 359 -187 83 -361 -105 -722 -786 -137 -260 -185 -345 -190 -340 -3 2
0 10 5 17 6 7 79 145 163 307 301 582 451 814 562 870 67 34 150 26 222 -22z
m-25 -69 c55 -27 138 -111 174 -177 36 -66 93 -221 124 -336 20 -74 24 -108
21 -190 -3 -88 -7 -106 -33 -153 -16 -29 -47 -66 -69 -83 -67 -49 -177 -72
-231 -49 -14 6 -3 9 40 9 118 2 219 78 252 190 11 40 14 82 11 160 -4 89 -12
126 -46 231 -46 140 -79 198 -148 265 -124 118 -244 119 -371 2 -101 -93 -241
-296 -393 -567 -124 -222 -352 -658 -389 -745 -39 -93 -57 -183 -45 -225 31
-109 215 -106 522 10 58 22 107 38 109 36 7 -6 -214 -99 -327 -137 -150 -50
-247 -66 -300 -50 -118 35 -92 150 123 560 63 119 165 313 227 431 199 379
359 633 471 748 100 102 172 120 278 70z m-4 -82 c64 -30 139 -106 175 -176
15 -30 45 -107 66 -170 34 -104 38 -126 38 -225 1 -95 -2 -117 -22 -160 -44
-96 -114 -145 -216 -151 l-61 -3 53 9 c126 23 199 103 222 242 24 154 -51 399
-153 502 -54 53 -108 79 -178 84 -45 3 -65 -1 -106 -22 -98 -49 -207 -168
-345 -377 -149 -225 -434 -765 -477 -903 -36 -118 -23 -188 42 -223 70 -37
280 -9 482 65 122 44 125 45 50 8 -99 -48 -356 -133 -444 -147 -94 -14 -156
-5 -189 28 -22 23 -24 30 -20 91 7 87 45 179 199 474 295 566 457 826 609 978
98 99 179 121 275 76z m-17 -71 c123 -52 201 -168 246 -364 51 -224 -26 -394
-194 -425 -27 -5 -21 -1 24 18 73 31 99 56 133 124 49 101 41 256 -21 397 -77
173 -218 238 -364 168 -69 -34 -174 -135 -263 -255 -77 -105 -224 -337 -217
-344 3 -2 39 48 79 113 207 330 359 483 496 500 144 17 269 -130 304 -360 21
-134 -27 -264 -116 -314 -22 -13 -44 -23 -50 -22 -5 0 4 7 20 16 104 54 152
179 126 327 -23 134 -86 230 -176 272 -71 33 -127 31 -204 -7 -122 -61 -234
-186 -417 -465 -64 -98 -130 -195 -145 -214 -34 -42 -140 -261 -168 -347 -28
-85 -28 -171 1 -208 12 -15 36 -34 54 -41 75 -31 293 -7 463 51 41 14 76 23
78 21 3 -2 -39 -21 -92 -41 -232 -90 -459 -128 -535 -88 -67 34 -71 122 -14
265 41 99 176 360 205 393 35 40 93 135 86 141 -3 3 -17 -15 -32 -40 -42 -72
-41 -54 1 22 187 334 359 573 474 657 87 64 150 78 218 50z m39 -171 c51 -29
83 -69 120 -149 39 -85 45 -228 13 -302 -12 -28 -33 -62 -47 -75 -24 -22 -23
-20 5 26 60 95 63 225 7 335 -69 136 -186 176 -325 110 -103 -48 -226 -181
-392 -425 -190 -278 -268 -440 -271 -564 -3 -74 17 -109 76 -139 42 -20 63
-24 145 -23 100 0 242 26 349 63 79 27 90 23 18 -7 -139 -58 -374 -114 -477
-114 -67 0 -122 17 -150 47 -20 21 -23 35 -22 91 3 126 86 299 299 621 202
306 283 404 395 479 99 66 175 74 257 26z m-53 -45 c52 -15 119 -79 146 -142
32 -72 39 -191 15 -253 -23 -60 -27 -52 -9 16 36 136 -35 292 -151 330 -109
36 -264 -45 -395 -206 -102 -125 -249 -339 -289 -419 -77 -157 -99 -270 -64
-335 53 -98 263 -117 520 -49 125 34 126 32 3 -10 -165 -57 -266 -76 -395 -76
-125 0 -163 13 -191 67 -34 66 0 205 93 378 40 76 179 284 285 427 98 134 222
241 312 269 52 16 71 17 120 3z m13 -70 c78 -29 125 -111 129 -224 3 -77 2
-78 -5 -20 -13 103 -65 179 -140 204 -136 45 -290 -54 -479 -309 -140 -187
-202 -323 -202 -440 0 -73 27 -116 95 -150 47 -23 60 -25 195 -24 112 0 167 5
240 22 159 37 122 18 -56 -28 -270 -70 -481 -56 -522 35 -18 40 -14 129 9 198
26 79 97 213 154 291 24 34 73 101 109 150 108 149 226 259 314 291 45 17 121
19 159 4z m3 -64 c31 -16 63 -51 83 -90 19 -38 34 -130 20 -122 -6 4 -13 25
-16 47 -6 50 -25 80 -74 117 -32 24 -45 28 -102 28 -85 -1 -145 -31 -243 -123
-102 -96 -180 -198 -233 -305 -98 -199 -78 -323 63 -378 50 -20 75 -23 197
-22 94 0 164 5 214 17 79 17 106 17 44 -2 -174 -51 -426 -72 -522 -43 -174 51
-153 253 56 546 96 136 240 283 308 315 82 40 146 44 205 15z m1 -58 c41 -27
79 -99 78 -147 l-1 -35 -7 35 c-24 119 -142 173 -261 119 -51 -23 -194 -128
-186 -136 3 -3 22 9 43 26 38 31 60 41 47 20 -4 -7 -3 -10 2 -7 97 46 124 57
149 58 74 5 95 0 127 -30 l33 -31 -35 21 c-56 32 -151 28 -228 -10 -158 -80
-270 -278 -233 -413 34 -121 193 -188 416 -173 55 3 114 8 130 11 17 2 22 2
12 -1 -9 -3 -15 -9 -13 -12 2 -4 -10 -7 -27 -7 -18 -1 -81 -7 -141 -14 -243
-28 -404 26 -436 147 -25 95 39 260 142 363 33 32 54 59 48 59 -22 0 -115
-105 -147 -165 -95 -181 -82 -317 38 -378 30 -15 78 -32 108 -37 67 -13 209
-13 281 -1 127 22 129 22 82 6 -89 -30 -239 -48 -365 -43 -105 4 -129 8 -171
29 -67 34 -89 65 -94 138 -8 105 70 278 174 386 26 28 48 52 49 55 8 26 25 45
82 91 93 75 144 99 213 99 43 0 66 -6 91 -23z m-12 -45 c31 -23 58 -60 66 -92
4 -19 0 -15 -16 13 -49 80 -155 98 -260 43 -65 -33 -76 -27 -17 10 87 55 174
65 227 26z m-109 -62 c-77 -8 -117 -27 -180 -86 -89 -83 -131 -237 -87 -320
24 -47 88 -99 153 -125 53 -21 75 -23 216 -24 170 0 176 -10 14 -24 -195 -17
-343 15 -410 89 -43 48 -50 73 -44 155 14 168 195 347 347 344 l56 -2 -65 -7z
m4063 -82 c-132 -256 -321 -417 -610 -521 -165 -60 -463 -93 -723 -82 -184 8
-703 45 -709 51 -13 13 23 13 185 -1 609 -51 925 -37 1207 51 284 90 494 258
645 517 24 42 47 77 49 77 2 0 -18 -42 -44 -92z m-4118 48 c-100 -46 -159
-134 -157 -236 0 -69 12 -99 56 -148 71 -78 204 -117 371 -110 l100 5 -65 -13
c-128 -26 -312 -9 -400 36 -44 23 -95 76 -109 113 -30 78 4 201 76 279 43 45
130 98 162 98 9 0 -7 -11 -34 -24z m24 -16 c-117 -62 -150 -197 -76 -307 61
-91 188 -142 364 -144 l88 -2 -85 -9 c-206 -21 -383 40 -441 155 -39 74 -15
186 53 256 34 35 94 70 118 70 8 0 -1 -8 -21 -19z m248 -32 c-3 -8 -6 -5 -6 6
-1 11 2 17 5 13 3 -3 4 -12 1 -19z m-88 -14 c27 -34 26 -57 -2 -90 -31 -36
-73 -36 -105 1 -26 30 -24 65 5 98 25 27 78 22 102 -9z m3891 -6 c-86 -145
-254 -300 -419 -386 -284 -149 -596 -187 -1191 -147 -344 23 -390 27 -390 38
0 5 21 7 53 3 199 -23 364 -31 667 -31 316 0 355 2 462 23 142 27 230 57 370
129 173 88 295 188 405 331 31 39 57 72 59 72 2 0 -5 -15 -16 -32z m-108 -95
c-28 -32 -63 -70 -79 -85 -55 -51 -183 -136 -280 -186 -203 -104 -359 -138
-668 -149 -252 -8 -835 26 -860 50 -6 6 3 7 25 4 129 -21 355 -32 680 -32 486
0 562 14 821 146 129 67 255 157 344 248 33 34 61 61 63 61 2 0 -19 -26 -46
-57z m-87 -50 c-149 -138 -384 -262 -574 -303 -147 -32 -351 -43 -631 -35
-140 3 -289 10 -330 15 -75 8 -63 8 320 -4 166 -4 435 11 561 33 228 40 455
142 622 281 45 38 84 69 87 69 3 0 -22 -25 -55 -56z m-120 -62 c-11 -20 -184
-112 -273 -146 -174 -67 -338 -93 -642 -102 -118 -3 -287 -2 -375 3 -156 9
-151 9 215 15 400 6 498 16 688 65 86 22 278 101 269 111 -2 2 -41 -12 -87
-32 -174 -74 -331 -107 -613 -126 -169 -11 -602 -6 -747 9 -36 4 89 5 276 3
562 -6 864 30 1102 133 46 20 80 31 77 26 -11 -17 8 -11 60 20 56 33 58 34 50
21z m-138 -32 c-116 -61 -347 -116 -593 -141 -149 -15 -783 -16 -884 -2 -45 6
32 8 248 5 564 -6 963 38 1188 132 71 30 93 33 41 6z m-3561 -21 l29 -33 -32
29 c-31 28 -38 36 -30 36 2 0 16 -15 33 -32z m1209 -27 c34 -5 -20 -9 -170
-13 -151 -4 -240 -11 -284 -23 -36 -8 -72 -14 -80 -12 -15 3 128 41 189 50 43
7 293 6 345 -2z m347 -98 c120 -9 216 -19 214 -21 -3 -2 -131 4 -286 14 -238
15 -308 15 -453 6 -246 -17 -459 -57 -625 -117 -94 -34 -90 -23 5 13 158 61
396 112 583 126 89 6 329 -3 562 -21z m495 -9 c-3 -3 -12 -4 -19 -1 -8 3 -5 6
6 6 11 1 17 -2 13 -5z m-522 -13 c64 -5 8 -8 -195 -9 -443 -2 -704 -39 -1004
-141 -66 -23 -121 -39 -123 -37 -8 8 259 99 370 126 103 25 263 52 377 63 66
7 485 5 575 -2z m213 -18 c-21 -2 -55 -2 -75 0 -21 2 -4 4 37 4 41 0 58 -2 38
-4z m370 0 c-10 -2 -26 -2 -35 0 -10 3 -2 5 17 5 19 0 27 -2 18 -5z m-363 -21
c22 -4 -124 -7 -325 -7 -402 0 -522 -9 -767 -56 -151 -29 -374 -90 -468 -127
-141 -56 -159 -63 -150 -54 19 19 267 113 384 147 150 43 345 81 486 95 61 5
128 12 150 14 62 6 645 -4 690 -12z m478 11 c-13 -2 -33 -2 -45 0 -13 2 -3 4
22 4 25 0 35 -2 23 -4z m-55 -20 c-10 -2 -26 -2 -35 0 -10 3 -2 5 17 5 19 0
27 -2 18 -5z m-398 -25 c9 -5 -64 -6 -185 -3 -213 7 -510 -6 -715 -31 -267
-32 -599 -115 -815 -204 -135 -55 -144 -57 -50 -11 215 107 583 209 875 242
232 26 851 31 890 7z m-2687 -33 c-3 -9 -8 -14 -10 -11 -3 3 -2 9 2 15 9 16
15 13 8 -4z m2662 6 c52 -11 70 -10 -310 -15 -335 -4 -451 -13 -730 -57 -250
-40 -591 -137 -779 -223 -100 -46 -112 -40 -14 7 299 144 745 256 1138 285
149 12 643 13 695 3z m1698 -53 c-37 -321 -245 -572 -534 -642 -92 -23 -256
-21 -351 3 -269 69 -484 306 -536 589 l-9 52 49 0 c27 0 140 -8 251 -17 130
-11 309 -17 502 -17 269 0 312 2 415 22 63 12 135 28 160 36 25 8 48 15 52 15
3 1 4 -18 1 -41z m-3133 22 c-8 -5 -19 -10 -25 -10 -5 0 -3 5 5 10 8 5 20 10
25 10 6 0 3 -5 -5 -10z m539 -88 c51 -80 189 -397 178 -409 -3 -2 -289 422
-295 438 -3 7 22 13 69 18 10 0 30 -19 48 -47z m81 -7 c0 5 -7 18 -16 29 -9
12 8 -4 38 -35 68 -70 135 -184 198 -336 47 -113 91 -286 76 -300 -13 -13 -28
16 -42 87 -22 105 -67 229 -134 366 -53 109 -106 191 -117 181 -2 -2 13 -28
33 -58 50 -75 89 -154 139 -284 45 -118 70 -206 62 -227 -5 -16 -47 50 -47 74
0 85 -201 530 -227 504 -3 -3 5 -19 17 -35 54 -77 213 -461 198 -477 -11 -10
-47 59 -73 136 -33 101 -108 281 -138 330 -11 19 -28 46 -36 60 l-15 25 22
-19 c23 -20 30 -10 10 14 -7 8 2 2 20 -14 17 -17 32 -26 32 -21z m-1952 10
c-6 -14 -13 -23 -15 -21 -5 5 15 46 22 46 3 0 -1 -11 -7 -25z m1211 20 c-9 -8
-79 -35 -79 -30 0 3 15 11 33 19 32 15 54 20 46 11z m621 -202 c151 -236 220
-337 227 -329 3 2 -19 40 -48 83 -114 169 -289 446 -284 451 7 7 -8 28 162
-228 166 -250 187 -285 179 -307 -3 -8 1 -27 9 -44 27 -52 -2 -31 -53 39 -54
73 -332 520 -332 533 0 5 2 9 4 9 2 0 64 -93 136 -207z m236 108 c53 -66 162
-282 200 -396 29 -86 45 -235 26 -235 -6 0 -14 5 -17 11 -7 10 -8 19 -19 115
-16 134 -157 446 -249 550 -44 49 -47 55 -19 35 19 -13 54 -49 78 -80z m-312
-116 c115 -203 230 -380 298 -458 47 -53 44 -76 -3 -31 -80 76 -194 251 -332
513 -78 146 -104 204 -79 176 5 -6 57 -95 116 -200z m69 -45 c73 -118 163
-257 200 -309 62 -87 75 -111 62 -111 -9 0 -67 69 -113 134 -70 98 -313 514
-312 533 1 14 29 -29 163 -247z m342 75 c99 -158 183 -370 191 -484 6 -73 1
-85 -36 -95 -14 -4 -20 -4 -14 1 18 14 16 115 -5 196 -45 173 -151 393 -244
502 l-50 60 57 -55 c31 -30 77 -86 101 -125z m35 15 c54 -80 146 -268 180
-370 42 -125 40 -230 -5 -230 -7 0 -9 26 -7 73 3 63 -1 88 -31 179 -58 173
-163 369 -249 466 -40 45 -40 45 16 -8 32 -30 75 -80 96 -110z m-2159 59 c-55
-119 -71 -171 -71 -238 0 -49 4 -61 25 -81 68 -64 271 -24 590 115 22 9 37 14
33 10 -18 -18 -286 -137 -393 -173 -137 -47 -216 -60 -268 -43 -71 24 -71 99
-1 263 34 80 117 239 122 234 1 -2 -15 -41 -37 -87z m1681 -119 c134 -249 221
-384 301 -467 60 -62 62 -82 6 -42 -45 32 -130 143 -198 257 -78 132 -246 465
-231 460 6 -2 61 -96 122 -208z m-33 -18 c128 -252 211 -383 293 -464 62 -61
64 -67 20 -44 -71 37 -188 198 -287 396 -81 161 -155 330 -144 330 4 0 58 -98
118 -218z m-1666 163 c-3 -9 -8 -14 -10 -11 -3 3 -2 9 2 15 9 16 15 13 8 -4z
m1017 -19 c0 -2 -7 -7 -16 -10 -8 -3 -12 -2 -9 4 6 10 25 14 25 6z m-1064 -73
c-82 -165 -108 -291 -66 -333 11 -11 31 -22 46 -26 79 -20 278 32 473 122 107
50 126 56 61 18 -155 -90 -445 -203 -542 -211 -93 -8 -118 8 -118 77 0 28 10
77 24 112 26 69 143 308 151 308 3 0 -10 -30 -29 -67z m884 47 c-8 -5 -19 -10
-25 -10 -5 0 -3 5 5 10 8 5 20 10 25 10 6 0 3 -5 -5 -10z m140 6 c0 -2 -7 -7
-16 -10 -8 -3 -12 -2 -9 4 6 10 25 14 25 6z m-185 -46 c-3 -5 -12 -10 -18 -10
-7 0 -6 4 3 10 19 12 23 12 15 0z m115 -10 c-8 -5 -19 -10 -25 -10 -5 0 -3 5
5 10 8 5 20 10 25 10 6 0 3 -5 -5 -10z m-80 -64 c0 -2 -7 -7 -16 -10 -8 -3
-12 -2 -9 4 6 10 25 14 25 6z m-974 -84 c-35 -69 -66 -166 -66 -205 0 -48 31
-84 79 -92 69 -11 238 39 436 130 120 55 78 26 -70 -48 -166 -83 -297 -134
-384 -149 -61 -10 -72 -10 -95 5 -21 14 -26 25 -26 60 1 50 50 185 103 280 44
77 59 90 23 19z m-102 -156 c-46 -114 -52 -163 -24 -198 18 -24 29 -28 73 -28
80 0 180 32 362 114 112 51 68 21 -83 -57 -211 -108 -372 -154 -415 -118 -36
29 -12 121 72 289 23 45 43 82 45 82 2 0 -12 -38 -30 -84z m2360 -113 c4 -13
4 -23 -1 -23 -12 0 -43 54 -43 75 0 14 3 13 19 -6 10 -13 21 -34 25 -46z m6
-72 c0 -11 -5 -10 -20 4 -11 10 -20 28 -20 39 0 20 1 20 20 -4 11 -14 20 -31
20 -39z m53 -4 c-8 -13 -33 14 -33 37 0 20 1 20 19 -4 11 -13 17 -28 14 -33z
m-53 -44 c0 -22 -20 -14 -30 13 -14 36 -13 39 10 19 11 -10 20 -24 20 -32z
m54 -15 c-3 -5 -10 -5 -16 -2 -7 5 -9 1 -5 -9 3 -10 2 -17 -3 -17 -14 0 -21
18 -10 25 5 3 7 18 4 33 l-6 27 20 -25 c11 -13 18 -28 16 -32z m52 5 c-4 -4
-14 1 -22 11 -22 31 -17 43 8 19 12 -13 18 -26 14 -30z m-120 -30 c-7 -7 -26
7 -26 19 0 6 6 6 15 -2 9 -7 13 -15 11 -17z m104 1 c0 -8 -4 -12 -10 -9 -5 3
-10 13 -10 21 0 8 5 12 10 9 6 -3 10 -13 10 -21z m56 -1 c-7 -7 -26 7 -26 19
0 6 6 6 15 -2 9 -7 13 -15 11 -17z"/>
<path d="M3392 5454 c-99 -49 -187 -168 -352 -474 -113 -208 -471 -912 -467
-917 5 -4 184 333 307 577 218 434 356 667 443 747 61 57 97 73 159 73 70 0
138 -39 212 -122 66 -75 109 -153 172 -314 145 -375 175 -510 139 -631 -40
-135 -243 -223 -415 -179 -35 9 -70 22 -77 28 -7 6 -16 9 -19 6 -8 -9 43 -37
90 -49 26 -6 84 -10 131 -7 71 4 95 10 158 41 117 58 156 123 156 262 1 98
-30 229 -89 375 -23 58 -57 148 -77 200 -66 182 -172 323 -285 380 -75 37
-118 38 -186 4z"/>
<path d="M3250 4555 c-7 -8 -8 -15 -2 -15 5 0 15 7 22 15 7 8 8 15 2 15 -5 0
-15 -7 -22 -15z"/>
<path d="M9199 4980 c-358 -41 -632 -236 -768 -546 -95 -219 -106 -529 -27
-763 53 -157 181 -326 321 -426 330 -236 835 -240 1142 -10 98 74 208 206 186
224 -4 4 -40 31 -80 60 l-72 52 -98 -99 c-78 -78 -114 -106 -174 -135 -97 -48
-187 -67 -315 -67 -456 -1 -787 394 -725 861 24 179 92 322 210 440 130 130
282 196 476 206 214 12 374 -47 524 -193 47 -46 87 -84 89 -84 6 0 162 112
167 119 16 26 -141 180 -245 241 -165 96 -406 143 -611 120z"/>
<path d="M11179 4979 c-402 -43 -702 -302 -805 -695 -24 -88 -27 -118 -27
-264 0 -181 12 -244 73 -396 81 -203 266 -386 477 -474 341 -142 788 -101
1043 95 69 53 142 132 138 149 -2 7 -33 41 -71 75 l-67 63 -28 -30 c-79 -87
-200 -161 -327 -202 -94 -30 -307 -39 -412 -17 -300 64 -527 287 -588 579 -18
82 -14 100 17 98 13 -1 377 -2 811 -1 l787 1 0 78 c-1 383 -197 719 -502 862
-139 65 -352 98 -519 79z m321 -229 c87 -29 134 -54 202 -107 133 -102 236
-284 263 -466 l7 -47 -694 0 c-382 0 -697 2 -700 5 -9 9 20 133 46 197 74 182
234 342 406 403 138 50 345 56 470 15z"/>
<path d="M3830 2104 l0 -105 -37 28 c-31 24 -45 28 -103 28 -57 0 -73 -4 -108
-29 -107 -74 -109 -244 -4 -324 32 -24 44 -27 113 -27 66 0 81 3 101 23 31 28
38 28 38 -4 0 -22 4 -25 27 -22 l27 3 3 268 4 267 -31 0 -30 0 0 -106z m-63
-120 c39 -24 57 -63 57 -118 0 -89 -49 -146 -124 -146 -102 0 -167 106 -126
203 32 77 122 105 193 61z"/>
<path d="M2040 1924 l0 -256 143 4 c118 3 150 7 187 24 94 44 143 124 143 235
0 92 -37 162 -110 205 -64 38 -95 44 -245 44 l-118 0 0 -256z m260 195 c98
-22 150 -89 150 -193 0 -85 -33 -142 -104 -178 -30 -16 -61 -20 -140 -21
l-101 -2 -3 203 -2 202 77 0 c43 0 98 -5 123 -11z"/>
<path d="M8660 2100 c0 -39 -1 -40 -35 -40 -30 0 -35 -3 -35 -24 0 -21 6 -25
33 -28 l32 -3 5 -143 c5 -142 5 -144 33 -168 48 -41 162 -29 150 16 -4 16 -11
19 -47 14 -22 -3 -47 -1 -55 5 -20 13 -30 94 -24 194 l6 87 48 0 c46 0 49 2
49 25 0 23 -3 25 -50 25 l-50 0 0 40 c0 38 -2 40 -30 40 -28 0 -30 -2 -30 -40z"/>
<path d="M11260 2100 c0 -39 -1 -40 -35 -40 -30 0 -35 -3 -35 -24 0 -21 6 -25
33 -28 l32 -3 5 -143 c5 -142 5 -144 33 -168 49 -42 169 -27 151 19 -5 14 -14
16 -45 11 -30 -5 -44 -2 -59 11 -18 16 -20 31 -20 147 l0 128 55 0 c52 0 55 1
55 25 0 24 -3 25 -55 25 l-55 0 0 40 c0 38 -2 40 -30 40 -28 0 -30 -2 -30 -40z"/>
<path d="M2690 2045 c-75 -34 -110 -93 -110 -185 0 -67 14 -101 57 -142 37
-35 73 -48 134 -48 83 0 152 44 178 113 18 47 13 133 -9 177 -42 82 -164 123
-250 85z m152 -62 c83 -41 76 -203 -11 -248 -88 -45 -191 20 -191 122 0 121
95 180 202 126z"/>
<path d="M3060 1866 l0 -196 29 0 29 0 4 136 3 136 33 29 c26 23 42 29 78 29
96 0 114 -32 114 -205 l0 -125 30 0 30 0 0 133 c0 164 -15 207 -82 237 -58 26
-105 25 -164 -5 -27 -14 -50 -25 -52 -25 -2 0 -2 10 0 23 2 18 -2 23 -24 25
l-28 3 0 -195z"/>
<path d="M4082 2039 c-79 -40 -121 -146 -92 -233 16 -48 66 -105 107 -122 48
-21 137 -18 183 6 48 24 57 38 38 57 -14 13 -20 12 -54 -6 -21 -12 -54 -21
-72 -21 -67 0 -133 46 -147 103 l-7 27 160 0 160 0 -5 43 c-17 134 -150 206
-271 146z m130 -39 c37 -11 69 -44 82 -87 l7 -23 -131 0 -131 0 7 23 c12 40
45 77 77 86 43 12 46 12 89 1z"/>
<path d="M4712 2039 c-115 -57 -144 -209 -59 -306 39 -45 82 -63 146 -63 58 0
97 13 129 42 28 27 28 45 1 53 -14 5 -28 0 -44 -15 -31 -30 -101 -38 -142 -16
-73 37 -98 114 -64 191 16 37 29 50 66 66 52 23 100 19 140 -13 19 -15 29 -17
45 -8 26 14 25 22 -3 48 -48 46 -146 55 -215 21z"/>
<path d="M5120 2045 c-123 -56 -156 -210 -67 -312 39 -45 82 -63 146 -63 61 0
97 13 134 48 44 41 60 81 60 143 -1 112 -70 187 -180 195 -39 3 -69 -1 -93
-11z m157 -62 c52 -35 71 -129 38 -192 -31 -62 -112 -88 -173 -57 -41 21 -59
46 -72 97 -31 124 102 221 207 152z"/>
<path d="M5490 1865 l0 -195 29 0 29 0 4 136 3 136 33 29 c26 23 42 29 78 29
96 0 114 -32 114 -205 l0 -125 31 0 31 0 -4 143 c-5 192 -26 231 -135 244 -47
5 -72 -2 -155 -45 -5 -2 -8 8 -8 22 0 21 -5 26 -25 26 l-25 0 0 -195z"/>
<path d="M5893 2048 c3 -7 33 -76 67 -153 34 -77 70 -159 81 -182 15 -36 23
-43 47 -43 22 0 32 7 42 28 45 97 150 345 150 353 0 6 -12 9 -27 7 -25 -3 -33
-16 -93 -155 -36 -84 -67 -153 -70 -153 -3 0 -34 69 -70 153 -65 150 -66 152
-99 155 -25 3 -32 0 -28 -10z"/>
<path d="M6415 2041 c-48 -22 -69 -44 -90 -94 -30 -72 -10 -183 41 -229 56
-49 167 -62 240 -29 52 24 61 37 39 61 -17 19 -18 18 -47 -3 -23 -17 -44 -22
-90 -22 -57 0 -61 2 -99 42 -21 23 -39 51 -39 63 0 19 6 20 155 20 l155 0 0
34 c0 130 -141 214 -265 157z m156 -52 c16 -8 59 -77 59 -94 0 -3 -59 -5 -131
-5 l-130 0 6 23 c20 66 73 101 139 92 21 -3 47 -10 57 -16z"/>
<path d="M6780 1865 l0 -195 29 0 29 0 4 136 3 136 33 29 c20 18 43 29 62 29
27 0 30 3 30 30 0 20 -5 30 -15 30 -22 0 -86 -28 -107 -47 -17 -15 -18 -14
-18 15 0 27 -4 32 -25 32 l-25 0 0 -195z"/>
<path d="M7140 2044 c-76 -33 -110 -86 -110 -170 0 -76 33 -134 93 -163 72
-35 164 -26 215 21 l22 21 0 -37 c0 -55 -24 -102 -61 -122 -41 -20 -139 -15
-189 11 -32 17 -34 17 -47 -1 -17 -24 -3 -39 54 -58 115 -39 239 -8 278 69 18
36 20 60 20 240 l0 200 -25 0 c-20 0 -26 -6 -30 -30 -4 -22 -8 -26 -14 -16
-14 22 -88 51 -131 50 -22 0 -56 -7 -75 -15z m162 -62 c59 -34 74 -132 30
-191 -45 -62 -150 -65 -209 -6 -29 29 -33 39 -33 88 0 45 5 61 25 85 42 50
124 61 187 24z"/>
<path d="M7620 2044 c-73 -32 -110 -92 -110 -179 0 -121 77 -195 202 -195 81
0 162 50 131 81 -9 9 -22 6 -55 -10 -77 -37 -161 -19 -199 43 -39 65 -36 66
136 66 l155 0 0 33 c0 38 -30 105 -56 129 -52 46 -140 60 -204 32z m124 -48
c37 -16 76 -60 76 -87 0 -18 -10 -19 -125 -19 -139 0 -142 2 -102 61 13 19 38
39 57 46 46 16 55 16 94 -1z"/>
<path d="M7980 1865 l0 -195 24 0 c23 0 23 2 28 123 3 67 10 134 16 149 14 34
60 58 112 58 92 0 110 -34 110 -205 l0 -125 31 0 31 0 -4 143 c-4 153 -14 189
-62 220 -57 38 -155 33 -206 -9 l-30 -26 0 31 c0 26 -4 31 -25 31 l-25 0 0
-195z"/>
<path d="M8930 1918 c0 -163 11 -197 71 -230 47 -27 146 -21 189 10 l30 23 0
-26 c0 -23 4 -26 28 -23 15 2 26 6 25 11 -2 4 -3 90 -3 192 l0 185 -25 0 c-25
0 -25 0 -25 -97 -1 -128 -12 -179 -44 -212 -22 -22 -35 -26 -82 -26 -50 0 -58
3 -80 30 -22 27 -24 40 -26 165 l-3 135 -27 3 -28 3 0 -143z"/>
<path d="M9454 2049 c-96 -28 -106 -156 -14 -191 14 -5 50 -14 80 -20 74 -13
102 -32 98 -66 -4 -38 -41 -54 -110 -48 -31 2 -71 11 -87 19 -29 15 -32 14
-46 -5 -8 -12 -12 -25 -9 -29 9 -16 107 -39 162 -39 95 0 152 42 152 111 0 54
-35 84 -123 104 -92 21 -119 38 -115 73 2 20 12 30 42 41 35 13 46 13 100 -1
63 -16 79 -12 73 21 -5 32 -131 51 -203 30z"/>
<path d="M9890 2049 c0 -5 27 -72 59 -147 109 -251 98 -234 134 -230 30 3 33
9 97 153 37 83 74 169 83 193 l17 42 -29 0 c-28 0 -32 -6 -97 -155 -37 -85
-70 -155 -73 -155 -3 0 -21 38 -40 83 -83 201 -98 227 -125 227 -14 0 -26 -5
-26 -11z"/>
<path d="M10399 2037 c-54 -29 -88 -86 -96 -159 -7 -74 33 -151 96 -185 57
-30 145 -31 201 -3 48 25 57 38 36 58 -14 15 -19 14 -55 -6 -70 -40 -154 -20
-198 47 -41 61 -40 61 138 61 l162 0 -7 43 c-22 137 -157 207 -277 144z m167
-52 c24 -15 61 -82 51 -91 -2 -3 -61 -3 -130 -2 l-126 3 18 41 c32 70 120 93
187 49z"/>
<path d="M10777 2054 c-4 -4 -7 -92 -7 -196 l0 -188 30 0 30 0 0 120 c0 168
25 210 123 210 40 0 53 -5 78 -29 l29 -29 0 -136 0 -136 30 0 30 0 0 138 c0
151 -10 187 -63 226 -40 30 -138 29 -189 -1 l-37 -22 -3 22 c-3 22 -36 35 -51
21z"/>
<path d="M11594 2047 c-17 -7 -41 -19 -52 -27 -19 -13 -20 -17 -8 -33 14 -18
16 -18 48 -1 18 10 56 18 85 18 65 1 103 -29 103 -81 l0 -33 -80 0 c-125 0
-180 -34 -180 -110 0 -69 53 -110 142 -110 34 0 67 7 91 20 l37 20 0 -20 c0
-15 7 -20 25 -20 l25 0 0 145 c0 113 -4 153 -16 176 -29 57 -141 86 -220 56z
m176 -234 c-1 -62 -38 -93 -112 -93 -55 0 -88 22 -88 58 0 15 4 33 9 40 11 18
62 30 134 31 l57 1 0 -37z"/>
<path d="M12013 2053 c-12 -2 -36 -17 -53 -33 -23 -21 -30 -37 -30 -65 0 -69
34 -97 138 -116 31 -6 67 -17 80 -25 30 -20 29 -59 -3 -80 -31 -20 -125 -15
-173 10 -30 15 -32 15 -42 -3 -17 -33 -12 -40 42 -56 141 -41 258 1 258 93 0
66 -32 92 -134 111 -69 13 -106 34 -106 60 0 48 84 74 159 47 41 -14 46 -14
57 2 20 25 18 28 -26 46 -38 15 -115 19 -167 9z"/>
<path d="M12294 1725 c-8 -33 12 -57 45 -53 22 3 26 8 26 38 0 32 -3 35 -32
38 -28 3 -33 -1 -39 -23z"/>
</g>
</svg>
